<svg viewBox="0 0 1049 111" fill="currentColor" xmlns="http://www.w3.org/2000/svg" aria-label="ROGER"><path d="M0 2.19043H122.69C171.89 2.19043 181.7 20.0904 181.7 42.6704C181.7 61.0404 169.56 73.1904 145.89 77.8604V78.3304C145.89 78.3304 150.4 80.9804 153.83 83.6204L185.28 106.66V108.06H125.96L87.66 79.5704H43.29V108.06H0.00999832V2.19043H0ZM43.28 37.3704V48.1104H125.8C135.45 48.1104 137.79 46.4004 137.79 42.6604C137.79 39.5404 135.61 37.3704 125.8 37.3704H43.28Z"></path><path d="M226.152 14.95C241.562 6.23001 268.502 0 305.872 0C343.242 0 370.332 6.23001 385.902 14.95C400.072 22.89 407.382 33.94 407.382 55.12C407.382 76.3 400.062 87.35 385.902 95.29C370.332 104.01 343.392 110.24 305.872 110.24C268.352 110.24 241.562 104.01 226.152 95.29C211.512 87.35 204.512 76.29 204.512 55.12C204.512 33.95 211.672 22.89 226.152 14.95ZM258.692 70.38C266.792 73.49 286.252 75.05 305.872 75.05C325.492 75.05 344.952 73.49 353.202 70.38C360.212 67.58 363.482 63.22 363.482 55.12C363.482 47.02 360.052 42.66 353.202 40.02C344.952 36.75 325.642 35.19 305.872 35.19C286.102 35.19 266.792 36.74 258.692 40.02C251.842 42.67 248.412 47.03 248.412 55.12C248.412 63.21 251.832 67.58 258.692 70.38Z"></path><path d="M525.921 43.4495H619.881V98.5695C601.511 103.86 561.961 110.25 527.081 110.25C485.821 110.25 463.551 107.14 446.581 98.1095C432.411 90.6395 423.691 76.6195 423.691 57.0095C423.691 37.3995 433.031 23.8495 446.111 15.8995C461.991 6.24954 487.681 0.0195312 527.081 0.0195312C564.291 0.0195312 599.321 4.37953 615.981 7.17953L611.471 38.4795C582.821 35.2095 557.131 33.0295 527.081 33.0295C501.391 33.0295 484.261 35.3595 476.171 39.8795C468.701 44.0795 467.611 50.9295 467.611 57.0095C467.611 62.4595 469.631 69.4595 476.801 72.7295C484.741 76.3095 499.691 77.2495 527.091 77.2495C542.501 77.2495 562.591 76.3095 576.601 74.7595V69.6195H525.921V43.4495Z"></path><path d="M694.591 68.9804V78.1704H829.891V108.06H651.301V2.19043H829.891V32.0804H694.591V41.2704H822.731V68.9804H694.591Z"></path><path d="M863.49 2.19043H986.18C1035.38 2.19043 1045.19 20.0904 1045.19 42.6704C1045.19 61.0404 1033.05 73.1904 1009.38 77.8604V78.3304C1009.38 78.3304 1013.89 80.9804 1017.32 83.6204L1048.77 106.66V108.06H989.45L951.15 79.5704H906.78V108.06H863.5V2.19043H863.49ZM906.78 37.3704V48.1104H989.3C998.95 48.1104 1001.29 46.4004 1001.29 42.6604C1001.29 39.5404 999.11 37.3704 989.3 37.3704H906.78Z"></path></svg>