<svg width="1049" height="106" viewBox="0 0 1049 106" fill="none" xmlns="http://www.w3.org/2000/svg">
<path d="M191.65 4.67L97.3 50.6V51.38L196.33 101.2V105.87H120.19L45.77 68.5H43.28V105.87H0V0H43.28V36.43H45.77L120.51 0H191.66V4.67H191.65Z" fill="black"/>
<path d="M297.95 33.16H298.26L335.16 0H396.2V1.55L319.75 70.06V105.87H276.47V70.06L200.02 1.55V0H261.05L297.95 33.16Z" fill="black"/>
<path d="M450.659 70.68H563.849V105.87H407.369V0H450.649V70.69L450.659 70.68Z" fill="black"/>
<path d="M619.87 105.87H576.59V0H619.87V105.87Z" fill="black"/>
<path d="M902.87 48.88V105.87H859.59V0H893.53L1005.48 56.98V0H1048.76V105.87H1014.97L902.87 48.88Z" fill="black"/>
<path d="M756.468 0H724.398L631.908 104V105.87H684.848L739.968 41.57H741.208L796.328 105.87H849.268V104L756.468 0Z" fill="black"/>
</svg>
